<svg id="visual" viewBox="0 0 540 960" width="540" height="960" xmlns="http://www.w3.org/2000/svg" xmlns:xlink="http://www.w3.org/1999/xlink" version="1.1"><rect x="0" y="0" width="540" height="960" fill="#02132a"></rect><path d="M0 72L26 72L26 152L51 152L51 208L77 208L77 202L103 202L103 146L129 146L129 92L154 92L154 175L180 175L180 68L206 68L206 94L231 94L231 101L257 101L257 112L283 112L283 102L309 102L309 110L334 110L334 160L360 160L360 198L386 198L386 198L411 198L411 147L437 147L437 101L463 101L463 69L489 69L489 161L514 161L514 45L540 45L540 151L540 961L540 961L514 961L514 961L489 961L489 961L463 961L463 961L437 961L437 961L411 961L411 961L386 961L386 961L360 961L360 961L334 961L334 961L309 961L309 961L283 961L283 961L257 961L257 961L231 961L231 961L206 961L206 961L180 961L180 961L154 961L154 961L129 961L129 961L103 961L103 961L77 961L77 961L51 961L51 961L26 961L26 961L0 961Z" fill="#021a65"></path><path d="M0 225L26 225L26 248L51 248L51 127L77 127L77 137L103 137L103 145L129 145L129 264L154 264L154 271L180 271L180 123L206 123L206 131L231 131L231 223L257 223L257 151L283 151L283 128L309 128L309 167L334 167L334 159L360 159L360 197L386 197L386 166L411 166L411 196L437 196L437 196L463 196L463 143L489 143L489 203L514 203L514 227L540 227L540 253L540 961L540 961L514 961L514 961L489 961L489 961L463 961L463 961L437 961L437 961L411 961L411 961L386 961L386 961L360 961L360 961L334 961L334 961L309 961L309 961L283 961L283 961L257 961L257 961L231 961L231 961L206 961L206 961L180 961L180 961L154 961L154 961L129 961L129 961L103 961L103 961L77 961L77 961L51 961L51 961L26 961L26 961L0 961Z" fill="#0f318d"></path><path d="M0 267L26 267L26 230L51 230L51 346L77 346L77 230L103 230L103 261L129 261L129 257L154 257L154 332L180 332L180 268L206 268L206 236L231 236L231 301L257 301L257 314L283 314L283 238L309 238L309 300L334 300L334 218L360 218L360 333L386 333L386 245L411 245L411 280L437 280L437 227L463 227L463 250L489 250L489 251L514 251L514 366L540 366L540 290L540 961L540 961L514 961L514 961L489 961L489 961L463 961L463 961L437 961L437 961L411 961L411 961L386 961L386 961L360 961L360 961L334 961L334 961L309 961L309 961L283 961L283 961L257 961L257 961L231 961L231 961L206 961L206 961L180 961L180 961L154 961L154 961L129 961L129 961L103 961L103 961L77 961L77 961L51 961L51 961L26 961L26 961L0 961Z" fill="#1649b7"></path><path d="M0 448L26 448L26 390L51 390L51 311L77 311L77 399L103 399L103 408L129 408L129 318L154 318L154 303L180 303L180 373L206 373L206 424L231 424L231 423L257 423L257 323L283 323L283 406L309 406L309 358L334 358L334 319L360 319L360 336L386 336L386 311L411 311L411 421L437 421L437 370L463 370L463 295L489 295L489 327L514 327L514 327L540 327L540 300L540 961L540 961L514 961L514 961L489 961L489 961L463 961L463 961L437 961L437 961L411 961L411 961L386 961L386 961L360 961L360 961L334 961L334 961L309 961L309 961L283 961L283 961L257 961L257 961L231 961L231 961L206 961L206 961L180 961L180 961L154 961L154 961L129 961L129 961L103 961L103 961L77 961L77 961L51 961L51 961L26 961L26 961L0 961Z" fill="#1263e3"></path><path d="M0 526L26 526L26 524L51 524L51 428L77 428L77 449L103 449L103 501L129 501L129 446L154 446L154 444L180 444L180 414L206 414L206 481L231 481L231 465L257 465L257 382L283 382L283 463L309 463L309 483L334 483L334 400L360 400L360 406L386 406L386 427L411 427L411 519L437 519L437 434L463 434L463 388L489 388L489 523L514 523L514 488L540 488L540 515L540 961L540 961L514 961L514 961L489 961L489 961L463 961L463 961L437 961L437 961L411 961L411 961L386 961L386 961L360 961L360 961L334 961L334 961L309 961L309 961L283 961L283 961L257 961L257 961L231 961L231 961L206 961L206 961L180 961L180 961L154 961L154 961L129 961L129 961L103 961L103 961L77 961L77 961L51 961L51 961L26 961L26 961L0 961Z" fill="#0074ff"></path><path d="M0 528L26 528L26 562L51 562L51 579L77 579L77 489L103 489L103 610L129 610L129 517L154 517L154 496L180 496L180 480L206 480L206 558L231 558L231 577L257 577L257 563L283 563L283 541L309 541L309 509L334 509L334 613L360 613L360 513L386 513L386 569L411 569L411 540L437 540L437 589L463 589L463 611L489 611L489 516L514 516L514 579L540 579L540 511L540 961L540 961L514 961L514 961L489 961L489 961L463 961L463 961L437 961L437 961L411 961L411 961L386 961L386 961L360 961L360 961L334 961L334 961L309 961L309 961L283 961L283 961L257 961L257 961L231 961L231 961L206 961L206 961L180 961L180 961L154 961L154 961L129 961L129 961L103 961L103 961L77 961L77 961L51 961L51 961L26 961L26 961L0 961Z" fill="#0074ff"></path><path d="M0 557L26 557L26 639L51 639L51 642L77 642L77 576L103 576L103 686L129 686L129 613L154 613L154 569L180 569L180 555L206 555L206 588L231 588L231 586L257 586L257 576L283 576L283 643L309 643L309 607L334 607L334 590L360 590L360 658L386 658L386 587L411 587L411 628L437 628L437 571L463 571L463 644L489 644L489 640L514 640L514 679L540 679L540 629L540 961L540 961L514 961L514 961L489 961L489 961L463 961L463 961L437 961L437 961L411 961L411 961L386 961L386 961L360 961L360 961L334 961L334 961L309 961L309 961L283 961L283 961L257 961L257 961L231 961L231 961L206 961L206 961L180 961L180 961L154 961L154 961L129 961L129 961L103 961L103 961L77 961L77 961L51 961L51 961L26 961L26 961L0 961Z" fill="#1263e3"></path><path d="M0 668L26 668L26 671L51 671L51 729L77 729L77 723L103 723L103 657L129 657L129 741L154 741L154 695L180 695L180 759L206 759L206 645L231 645L231 700L257 700L257 767L283 767L283 752L309 752L309 681L334 681L334 716L360 716L360 693L386 693L386 710L411 710L411 727L437 727L437 675L463 675L463 719L489 719L489 689L514 689L514 724L540 724L540 649L540 961L540 961L514 961L514 961L489 961L489 961L463 961L463 961L437 961L437 961L411 961L411 961L386 961L386 961L360 961L360 961L334 961L334 961L309 961L309 961L283 961L283 961L257 961L257 961L231 961L231 961L206 961L206 961L180 961L180 961L154 961L154 961L129 961L129 961L103 961L103 961L77 961L77 961L51 961L51 961L26 961L26 961L0 961Z" fill="#1649b7"></path><path d="M0 730L26 730L26 847L51 847L51 827L77 827L77 748L103 748L103 810L129 810L129 795L154 795L154 812L180 812L180 743L206 743L206 802L231 802L231 812L257 812L257 774L283 774L283 761L309 761L309 787L334 787L334 768L360 768L360 826L386 826L386 801L411 801L411 736L437 736L437 727L463 727L463 757L489 757L489 838L514 838L514 780L540 780L540 817L540 961L540 961L514 961L514 961L489 961L489 961L463 961L463 961L437 961L437 961L411 961L411 961L386 961L386 961L360 961L360 961L334 961L334 961L309 961L309 961L283 961L283 961L257 961L257 961L231 961L231 961L206 961L206 961L180 961L180 961L154 961L154 961L129 961L129 961L103 961L103 961L77 961L77 961L51 961L51 961L26 961L26 961L0 961Z" fill="#0f318d"></path><path d="M0 918L26 918L26 825L51 825L51 925L77 925L77 891L103 891L103 814L129 814L129 830L154 830L154 868L180 868L180 928L206 928L206 873L231 873L231 844L257 844L257 902L283 902L283 877L309 877L309 863L334 863L334 858L360 858L360 875L386 875L386 835L411 835L411 821L437 821L437 926L463 926L463 827L489 827L489 854L514 854L514 899L540 899L540 873L540 961L540 961L514 961L514 961L489 961L489 961L463 961L463 961L437 961L437 961L411 961L411 961L386 961L386 961L360 961L360 961L334 961L334 961L309 961L309 961L283 961L283 961L257 961L257 961L231 961L231 961L206 961L206 961L180 961L180 961L154 961L154 961L129 961L129 961L103 961L103 961L77 961L77 961L51 961L51 961L26 961L26 961L0 961Z" fill="#021a65"></path></svg>