<svg id="visual" viewBox="0 0 900 600" width="900" height="600" xmlns="http://www.w3.org/2000/svg" xmlns:xlink="http://www.w3.org/1999/xlink" version="1.1"><rect x="0" y="0" width="900" height="600" fill="#02132a"></rect><path d="M0 45L43 45L43 95L86 95L86 130L129 130L129 126L171 126L171 91L214 91L214 57L257 57L257 109L300 109L300 42L343 42L343 58L386 58L386 63L429 63L429 69L471 69L471 63L514 63L514 68L557 68L557 100L600 100L600 123L643 123L643 123L686 123L686 92L729 92L729 63L771 63L771 43L814 43L814 100L857 100L857 28L900 28L900 94L900 601L900 601L857 601L857 601L814 601L814 601L771 601L771 601L729 601L729 601L686 601L686 601L643 601L643 601L600 601L600 601L557 601L557 601L514 601L514 601L471 601L471 601L429 601L429 601L386 601L386 601L343 601L343 601L300 601L300 601L257 601L257 601L214 601L214 601L171 601L171 601L129 601L129 601L86 601L86 601L43 601L43 601L0 601Z" fill="#021a65"></path><path d="M0 140L43 140L43 155L86 155L86 79L129 79L129 85L171 85L171 90L214 90L214 164L257 164L257 169L300 169L300 77L343 77L343 82L386 82L386 139L429 139L429 94L471 94L471 80L514 80L514 104L557 104L557 99L600 99L600 123L643 123L643 103L686 103L686 122L729 122L729 122L771 122L771 89L814 89L814 126L857 126L857 142L900 142L900 158L900 601L900 601L857 601L857 601L814 601L814 601L771 601L771 601L729 601L729 601L686 601L686 601L643 601L643 601L600 601L600 601L557 601L557 601L514 601L514 601L471 601L471 601L429 601L429 601L386 601L386 601L343 601L343 601L300 601L300 601L257 601L257 601L214 601L214 601L171 601L171 601L129 601L129 601L86 601L86 601L43 601L43 601L0 601Z" fill="#0f318d"></path><path d="M0 166L43 166L43 144L86 144L86 216L129 216L129 144L171 144L171 163L214 163L214 160L257 160L257 207L300 207L300 167L343 167L343 147L386 147L386 188L429 188L429 196L471 196L471 148L514 148L514 187L557 187L557 136L600 136L600 208L643 208L643 153L686 153L686 174L729 174L729 141L771 141L771 156L814 156L814 156L857 156L857 229L900 229L900 181L900 601L900 601L857 601L857 601L814 601L814 601L771 601L771 601L729 601L729 601L686 601L686 601L643 601L643 601L600 601L600 601L557 601L557 601L514 601L514 601L471 601L471 601L429 601L429 601L386 601L386 601L343 601L343 601L300 601L300 601L257 601L257 601L214 601L214 601L171 601L171 601L129 601L129 601L86 601L86 601L43 601L43 601L0 601Z" fill="#1649b7"></path><path d="M0 279L43 279L43 243L86 243L86 194L129 194L129 249L171 249L171 255L214 255L214 199L257 199L257 189L300 189L300 233L343 233L343 265L386 265L386 264L429 264L429 202L471 202L471 253L514 253L514 223L557 223L557 199L600 199L600 209L643 209L643 194L686 194L686 263L729 263L729 231L771 231L771 184L814 184L814 204L857 204L857 204L900 204L900 187L900 601L900 601L857 601L857 601L814 601L814 601L771 601L771 601L729 601L729 601L686 601L686 601L643 601L643 601L600 601L600 601L557 601L557 601L514 601L514 601L471 601L471 601L429 601L429 601L386 601L386 601L343 601L343 601L300 601L300 601L257 601L257 601L214 601L214 601L171 601L171 601L129 601L129 601L86 601L86 601L43 601L43 601L0 601Z" fill="#1263e3"></path><path d="M0 328L43 328L43 327L86 327L86 267L129 267L129 280L171 280L171 312L214 312L214 278L257 278L257 277L300 277L300 258L343 258L343 300L386 300L386 290L429 290L429 239L471 239L471 289L514 289L514 301L557 301L557 250L600 250L600 254L643 254L643 267L686 267L686 324L729 324L729 271L771 271L771 242L814 242L814 327L857 327L857 304L900 304L900 321L900 601L900 601L857 601L857 601L814 601L814 601L771 601L771 601L729 601L729 601L686 601L686 601L643 601L643 601L600 601L600 601L557 601L557 601L514 601L514 601L471 601L471 601L429 601L429 601L386 601L386 601L343 601L343 601L300 601L300 601L257 601L257 601L214 601L214 601L171 601L171 601L129 601L129 601L86 601L86 601L43 601L43 601L0 601Z" fill="#0074ff"></path><path d="M0 329L43 329L43 351L86 351L86 362L129 362L129 305L171 305L171 381L214 381L214 323L257 323L257 309L300 309L300 300L343 300L343 349L386 349L386 361L429 361L429 352L471 352L471 338L514 338L514 318L557 318L557 383L600 383L600 320L643 320L643 355L686 355L686 337L729 337L729 368L771 368L771 381L814 381L814 322L857 322L857 361L900 361L900 319L900 601L900 601L857 601L857 601L814 601L814 601L771 601L771 601L729 601L729 601L686 601L686 601L643 601L643 601L600 601L600 601L557 601L557 601L514 601L514 601L471 601L471 601L429 601L429 601L386 601L386 601L343 601L343 601L300 601L300 601L257 601L257 601L214 601L214 601L171 601L171 601L129 601L129 601L86 601L86 601L43 601L43 601L0 601Z" fill="#0074ff"></path><path d="M0 348L43 348L43 399L86 399L86 401L129 401L129 359L171 359L171 428L214 428L214 383L257 383L257 355L300 355L300 347L343 347L343 367L386 367L386 366L429 366L429 360L471 360L471 402L514 402L514 379L557 379L557 368L600 368L600 411L643 411L643 366L686 366L686 392L729 392L729 357L771 357L771 402L814 402L814 399L857 399L857 424L900 424L900 392L900 601L900 601L857 601L857 601L814 601L814 601L771 601L771 601L729 601L729 601L686 601L686 601L643 601L643 601L600 601L600 601L557 601L557 601L514 601L514 601L471 601L471 601L429 601L429 601L386 601L386 601L343 601L343 601L300 601L300 601L257 601L257 601L214 601L214 601L171 601L171 601L129 601L129 601L86 601L86 601L43 601L43 601L0 601Z" fill="#1263e3"></path><path d="M0 417L43 417L43 419L86 419L86 455L129 455L129 451L171 451L171 410L214 410L214 463L257 463L257 434L300 434L300 474L343 474L343 403L386 403L386 437L429 437L429 479L471 479L471 470L514 470L514 425L557 425L557 447L600 447L600 433L643 433L643 443L686 443L686 454L729 454L729 421L771 421L771 449L814 449L814 430L857 430L857 452L900 452L900 405L900 601L900 601L857 601L857 601L814 601L814 601L771 601L771 601L729 601L729 601L686 601L686 601L643 601L643 601L600 601L600 601L557 601L557 601L514 601L514 601L471 601L471 601L429 601L429 601L386 601L386 601L343 601L343 601L300 601L300 601L257 601L257 601L214 601L214 601L171 601L171 601L129 601L129 601L86 601L86 601L43 601L43 601L0 601Z" fill="#1649b7"></path><path d="M0 456L43 456L43 529L86 529L86 516L129 516L129 467L171 467L171 506L214 506L214 497L257 497L257 507L300 507L300 464L343 464L343 501L386 501L386 507L429 507L429 483L471 483L471 475L514 475L514 491L557 491L557 480L600 480L600 516L643 516L643 501L686 501L686 460L729 460L729 454L771 454L771 473L814 473L814 523L857 523L857 487L900 487L900 510L900 601L900 601L857 601L857 601L814 601L814 601L771 601L771 601L729 601L729 601L686 601L686 601L643 601L643 601L600 601L600 601L557 601L557 601L514 601L514 601L471 601L471 601L429 601L429 601L386 601L386 601L343 601L343 601L300 601L300 601L257 601L257 601L214 601L214 601L171 601L171 601L129 601L129 601L86 601L86 601L43 601L43 601L0 601Z" fill="#0f318d"></path><path d="M0 574L43 574L43 515L86 515L86 578L129 578L129 556L171 556L171 508L214 508L214 518L257 518L257 542L300 542L300 579L343 579L343 545L386 545L386 527L429 527L429 563L471 563L471 548L514 548L514 539L557 539L557 536L600 536L600 547L643 547L643 522L686 522L686 513L729 513L729 578L771 578L771 516L814 516L814 534L857 534L857 561L900 561L900 545L900 601L900 601L857 601L857 601L814 601L814 601L771 601L771 601L729 601L729 601L686 601L686 601L643 601L643 601L600 601L600 601L557 601L557 601L514 601L514 601L471 601L471 601L429 601L429 601L386 601L386 601L343 601L343 601L300 601L300 601L257 601L257 601L214 601L214 601L171 601L171 601L129 601L129 601L86 601L86 601L43 601L43 601L0 601Z" fill="#021a65"></path></svg>