<svg id="visual" viewBox="0 0 900 600" width="900" height="600" xmlns="http://www.w3.org/2000/svg" xmlns:xlink="http://www.w3.org/1999/xlink" version="1.1"><rect x="0" y="0" width="900" height="600" fill="#0f172a"></rect><path d="M0 320L90 320L90 332L180 332L180 354L270 354L270 319L360 319L360 269L450 269L450 249L540 249L540 366L630 366L630 317L720 317L720 318L810 318L810 368L900 368L900 320L900 601L900 601L810 601L810 601L720 601L720 601L630 601L630 601L540 601L540 601L450 601L450 601L360 601L360 601L270 601L270 601L180 601L180 601L90 601L90 601L0 601Z" fill="#7e22ce"></path><path d="M0 459L90 459L90 411L180 411L180 391L270 391L270 415L360 415L360 422L450 422L450 349L540 349L540 388L630 388L630 345L720 345L720 388L810 388L810 403L900 403L900 416L900 601L900 601L810 601L810 601L720 601L720 601L630 601L630 601L540 601L540 601L450 601L450 601L360 601L360 601L270 601L270 601L180 601L180 601L90 601L90 601L0 601Z" fill="#6b1faa"></path><path d="M0 459L90 459L90 501L180 501L180 475L270 475L270 531L360 531L360 541L450 541L450 463L540 463L540 523L630 523L630 448L720 448L720 478L810 478L810 492L900 492L900 518L900 601L900 601L810 601L810 601L720 601L720 601L630 601L630 601L540 601L540 601L450 601L450 601L360 601L360 601L270 601L270 601L180 601L180 601L90 601L90 601L0 601Z" fill="#581c87"></path></svg>